<?xml version="1.0" standalone="no"?><!-- Created with ZXing.Net (http://zxingnet.codeplex.com/) --><!DOCTYPE svg PUBLIC "-//W3C//DTD SVG 1.1//EN" "http://www.w3.org/Graphics/SVG/1.1/DTD/svg11.dtd"><svg xmlns="http://www.w3.org/2000/svg" version="1.2" baseProfile="tiny" shape-rendering="crispEdges" viewBox="0 0 1024 1024" viewport-fill="rgb(255,255,255)" viewport-fill-opacity="1" fill="rgb(0,0,0)" fill-opacity="1" style="background-color:rgb(255,255,255);background-color:rgba(255, 255, 255, 1);"><rect x="66" y="66" width="27" height="189"/><rect x="66" y="282" width="27" height="108"/><rect x="66" y="444" width="27" height="108"/><rect x="66" y="579" width="54" height="27"/><rect x="66" y="633" width="135" height="27"/><rect x="66" y="714" width="27" height="27"/><rect x="66" y="768" width="27" height="189"/><rect x="93" y="66" width="162" height="27"/><rect x="93" y="228" width="162" height="27"/><rect x="93" y="336" width="81" height="27"/><rect x="93" y="390" width="27" height="27"/><rect x="93" y="444" width="54" height="27"/><rect x="93" y="498" width="54" height="27"/><rect x="93" y="552" width="27" height="108"/><rect x="93" y="687" width="27" height="27"/><rect x="93" y="768" width="162" height="27"/><rect x="93" y="930" width="162" height="27"/><rect x="120" y="120" width="81" height="81"/><rect x="120" y="282" width="54" height="27"/><rect x="120" y="363" width="27" height="27"/><rect x="120" y="417" width="27" height="54"/><rect x="120" y="525" width="27" height="54"/><rect x="120" y="606" width="54" height="81"/><rect x="120" y="714" width="54" height="27"/><rect x="120" y="822" width="81" height="81"/><rect x="147" y="390" width="27" height="27"/><rect x="147" y="525" width="27" height="27"/><rect x="174" y="309" width="54" height="27"/><rect x="174" y="363" width="54" height="27"/><rect x="174" y="444" width="27" height="27"/><rect x="174" y="498" width="108" height="27"/><rect x="174" y="552" width="27" height="54"/><rect x="174" y="660" width="27" height="27"/><rect x="201" y="282" width="27" height="162"/><rect x="201" y="525" width="27" height="54"/><rect x="201" y="687" width="27" height="54"/><rect x="228" y="93" width="27" height="162"/><rect x="228" y="282" width="54" height="27"/><rect x="228" y="336" width="27" height="27"/><rect x="228" y="390" width="54" height="27"/><rect x="228" y="444" width="54" height="27"/><rect x="228" y="552" width="27" height="27"/><rect x="228" y="606" width="135" height="27"/><rect x="228" y="660" width="162" height="27"/><rect x="228" y="714" width="54" height="27"/><rect x="228" y="795" width="27" height="162"/><rect x="255" y="309" width="27" height="27"/><rect x="255" y="363" width="27" height="54"/><rect x="255" y="471" width="27" height="81"/><rect x="255" y="687" width="27" height="54"/><rect x="282" y="66" width="27" height="54"/><rect x="282" y="147" width="27" height="27"/><rect x="282" y="228" width="27" height="54"/><rect x="282" y="363" width="54" height="27"/><rect x="282" y="687" width="54" height="27"/><rect x="282" y="741" width="27" height="81"/><rect x="282" y="849" width="27" height="54"/><rect x="282" y="930" width="27" height="27"/><rect x="309" y="93" width="27" height="54"/><rect x="309" y="174" width="81" height="27"/><rect x="309" y="255" width="54" height="27"/><rect x="309" y="309" width="27" height="27"/><rect x="309" y="417" width="81" height="27"/><rect x="309" y="525" width="54" height="27"/><rect x="309" y="579" width="27" height="54"/><rect x="309" y="714" width="54" height="54"/><rect x="309" y="795" width="27" height="27"/><rect x="309" y="849" width="27" height="27"/><rect x="309" y="903" width="54" height="27"/><rect x="336" y="147" width="27" height="54"/><rect x="336" y="228" width="27" height="81"/><rect x="336" y="390" width="27" height="81"/><rect x="336" y="768" width="27" height="27"/><rect x="336" y="930" width="27" height="27"/><rect x="363" y="66" width="108" height="27"/><rect x="363" y="282" width="27" height="27"/><rect x="363" y="336" width="27" height="27"/><rect x="363" y="552" width="27" height="27"/><rect x="363" y="795" width="54" height="27"/><rect x="363" y="849" width="27" height="54"/><rect x="390" y="93" width="54" height="27"/><rect x="390" y="147" width="27" height="27"/><rect x="390" y="201" width="27" height="54"/><rect x="390" y="363" width="27" height="54"/><rect x="390" y="471" width="27" height="54"/><rect x="390" y="714" width="54" height="54"/><rect x="390" y="822" width="27" height="54"/><rect x="390" y="903" width="27" height="54"/><rect x="417" y="363" width="81" height="27"/><rect x="417" y="417" width="27" height="54"/><rect x="417" y="498" width="27" height="27"/><rect x="417" y="579" width="27" height="54"/><rect x="417" y="660" width="27" height="108"/><rect x="417" y="849" width="27" height="27"/><rect x="444" y="147" width="27" height="54"/><rect x="444" y="228" width="27" height="27"/><rect x="444" y="282" width="27" height="27"/><rect x="444" y="336" width="27" height="54"/><rect x="444" y="525" width="54" height="54"/><rect x="444" y="633" width="27" height="81"/><rect x="444" y="768" width="27" height="54"/><rect x="444" y="903" width="162" height="27"/><rect x="471" y="120" width="27" height="27"/><rect x="471" y="390" width="27" height="27"/><rect x="471" y="444" width="54" height="27"/><rect x="471" y="498" width="27" height="108"/><rect x="471" y="633" width="27" height="27"/><rect x="471" y="714" width="54" height="54"/><rect x="471" y="822" width="27" height="27"/><rect x="471" y="930" width="54" height="27"/><rect x="498" y="66" width="27" height="54"/><rect x="498" y="147" width="135" height="27"/><rect x="498" y="228" width="27" height="27"/><rect x="498" y="336" width="54" height="27"/><rect x="498" y="417" width="27" height="81"/><rect x="498" y="552" width="27" height="54"/><rect x="498" y="660" width="27" height="162"/><rect x="525" y="201" width="27" height="27"/><rect x="525" y="255" width="27" height="108"/><rect x="525" y="417" width="27" height="27"/><rect x="525" y="498" width="27" height="81"/><rect x="525" y="741" width="81" height="27"/><rect x="525" y="822" width="27" height="108"/><rect x="552" y="66" width="27" height="27"/><rect x="552" y="174" width="189" height="27"/><rect x="552" y="228" width="27" height="27"/><rect x="552" y="390" width="27" height="27"/><rect x="552" y="444" width="135" height="27"/><rect x="552" y="498" width="54" height="27"/><rect x="552" y="606" width="54" height="54"/><rect x="552" y="687" width="81" height="27"/><rect x="552" y="849" width="27" height="27"/><rect x="552" y="930" width="108" height="27"/><rect x="579" y="201" width="81" height="27"/><rect x="579" y="282" width="81" height="27"/><rect x="579" y="417" width="54" height="54"/><rect x="579" y="579" width="27" height="81"/><rect x="579" y="768" width="27" height="54"/><rect x="606" y="66" width="27" height="54"/><rect x="606" y="228" width="27" height="135"/><rect x="606" y="390" width="27" height="108"/><rect x="606" y="525" width="27" height="27"/><rect x="606" y="606" width="27" height="27"/><rect x="606" y="660" width="27" height="81"/><rect x="606" y="849" width="135" height="27"/><rect x="633" y="93" width="27" height="27"/><rect x="633" y="309" width="27" height="27"/><rect x="633" y="390" width="54" height="27"/><rect x="633" y="471" width="27" height="54"/><rect x="633" y="633" width="27" height="27"/><rect x="633" y="768" width="27" height="108"/><rect x="660" y="120" width="27" height="81"/><rect x="660" y="228" width="27" height="27"/><rect x="660" y="417" width="27" height="54"/><rect x="660" y="498" width="27" height="81"/><rect x="660" y="660" width="81" height="27"/><rect x="660" y="795" width="81" height="27"/><rect x="660" y="876" width="27" height="54"/><rect x="687" y="66" width="54" height="54"/><rect x="687" y="255" width="54" height="27"/><rect x="687" y="309" width="27" height="54"/><rect x="687" y="417" width="81" height="27"/><rect x="687" y="498" width="54" height="54"/><rect x="687" y="579" width="81" height="27"/><rect x="687" y="633" width="27" height="81"/><rect x="687" y="768" width="27" height="135"/><rect x="687" y="930" width="27" height="27"/><rect x="714" y="120" width="27" height="27"/><rect x="714" y="201" width="27" height="108"/><rect x="714" y="363" width="108" height="27"/><rect x="714" y="444" width="27" height="108"/><rect x="714" y="687" width="27" height="189"/><rect x="714" y="903" width="54" height="27"/><rect x="741" y="471" width="54" height="54"/><rect x="741" y="714" width="189" height="27"/><rect x="741" y="822" width="108" height="27"/><rect x="741" y="930" width="54" height="27"/><rect x="768" y="66" width="27" height="189"/><rect x="768" y="282" width="27" height="108"/><rect x="768" y="444" width="27" height="108"/><rect x="768" y="768" width="27" height="27"/><rect x="768" y="876" width="54" height="27"/><rect x="795" y="66" width="162" height="27"/><rect x="795" y="228" width="162" height="27"/><rect x="795" y="309" width="27" height="162"/><rect x="795" y="552" width="54" height="27"/><rect x="795" y="660" width="27" height="81"/><rect x="795" y="849" width="27" height="81"/><rect x="822" y="120" width="81" height="81"/><rect x="822" y="336" width="54" height="27"/><rect x="822" y="390" width="54" height="27"/><rect x="822" y="471" width="27" height="162"/><rect x="822" y="660" width="135" height="27"/><rect x="822" y="741" width="27" height="108"/><rect x="822" y="903" width="27" height="54"/><rect x="849" y="282" width="27" height="216"/><rect x="849" y="525" width="27" height="27"/><rect x="849" y="606" width="27" height="162"/><rect x="849" y="795" width="81" height="27"/><rect x="849" y="849" width="27" height="27"/><rect x="849" y="930" width="27" height="27"/><rect x="876" y="309" width="54" height="27"/><rect x="876" y="417" width="54" height="27"/><rect x="876" y="471" width="27" height="54"/><rect x="876" y="552" width="54" height="27"/><rect x="876" y="606" width="27" height="81"/><rect x="876" y="822" width="27" height="27"/><rect x="903" y="282" width="27" height="162"/><rect x="903" y="525" width="27" height="81"/><rect x="903" y="687" width="27" height="135"/><rect x="930" y="93" width="27" height="162"/><rect x="930" y="282" width="27" height="27"/><rect x="930" y="336" width="27" height="27"/><rect x="930" y="579" width="27" height="135"/><rect x="930" y="849" width="27" height="27"/><rect x="930" y="903" width="27" height="27"/></svg>